<?xml version="1.0" encoding="UTF-8"?>
<svg width="445px" height="116px" viewBox="0 0 445 116" version="1.1" xmlns="http://www.w3.org/2000/svg" xmlns:xlink="http://www.w3.org/1999/xlink">
    <title>编组 3</title>
    <g id="页面-1" stroke="none" stroke-width="1" fill="none" fill-rule="evenodd">
        <g id="画板备份-6" transform="translate(-1326.000000, -529.000000)">
            <g id="编组-3" transform="translate(1326.000000, 529.000000)">
                <text id="CRS" font-family="PingFangSC-Semibold, PingFang SC" font-size="18" font-weight="500" fill="#FFFFFF" fill-opacity="0.895086115">
                    <tspan x="382" y="56">CRS</tspan>
                </text>
                <g id="编组-2" transform="translate(13.000000, 20.000000)">
                    <g id="编组-11" stroke="#FFFFFF" stroke-width="0.567">
                        <g id="编组">
                            <path d="M26.2356003,12.8090214 L26.2356003,15.5412054 C26.2356003,20.5780554 22.1524443,24.6610224 17.1155943,24.6610224 C12.0789333,24.6610224 7.9955883,20.5780554 7.9955883,15.5412054 L7.9955883,12.8090214" id="Stroke-1"></path>
                            <path d="M5.3631018,13.2036345 L5.3631018,11.8294155 C5.3631018,5.3482275 10.6171128,0.0944055 17.0981118,0.0944055 C23.5792998,0.0944055 28.8331218,5.3482275 28.8331218,11.8294155 L28.8331218,13.2036345" id="Stroke-3"></path>
                            <path d="M6.5917908,17.7774723 L7.8703758,17.7774723 L7.8703758,12.8090403 L6.5917908,12.8090403 C5.2198398,12.8090403 4.1075748,13.9213053 4.1075748,15.2932563 C4.1075748,16.6652073 5.2198398,17.7774723 6.5917908,17.7774723 Z" id="Stroke-5"></path>
                            <path d="M27.5139396,17.7774723 L26.2355436,17.7774723 L26.2355436,12.8090403 L27.5139396,12.8090403 C28.8858906,12.8090403 29.9981556,13.9213053 29.9981556,15.2932563 C29.9981556,16.6652073 28.8858906,17.7774723 27.5139396,17.7774723 Z" id="Stroke-7"></path>
                            <path d="M7.8710562,12.8069046 C8.6151492,13.0972086 9.4246362,13.2563466 10.2711672,13.2563466 C13.9203792,13.2563466 16.8786072,10.2981186 16.8786072,6.6489066" id="Stroke-9"></path>
                            <path d="M17.0980929,6.6490011 C17.0980929,10.2982131 20.0563209,13.2564411 23.7055329,13.2564411 C24.6682989,13.2564411 25.5828699,13.0506201 26.4076659,12.6803691" id="Stroke-11"></path>
                            <path d="M12.7760031,23.716665 L12.7760031,26.8191 C12.7760031,27.906417 11.8945071,28.787913 10.8071901,28.787913 L10.6854741,28.787913 C4.8363021,28.787913 0.0944811,33.529545 0.0944811,39.378906 L0.0944811,45.89487 C0.0944811,46.982187 0.9757881,47.863683 2.0631051,47.863683 L32.1330051,47.863683 C33.2203221,47.863683 34.1018181,46.982187 34.1018181,45.89487 L34.1018181,39.378906 C34.1018181,33.529545 29.3599971,28.787913 23.5108251,28.787913 L23.4240741,28.787913 C22.3367571,28.787913 21.4552611,27.906417 21.4552611,26.8191 L21.4552611,23.716665" id="Stroke-13"></path>
                            <polyline id="Stroke-15" points="12.7760031 26.8191189 20.7512361 34.7945409 26.1770481 29.3687289"></polyline>
                            <polyline id="Stroke-17" points="21.3969168 26.7580152 13.4214948 34.7334372 7.9956828 29.3074362"></polyline>
                        </g>
                    </g>
                    <g id="编组-11备份" transform="translate(52.200000, 0.000000)" stroke="#FFFFFF" stroke-width="0.567">
                        <g id="编组">
                            <path d="M26.2356003,12.8090214 L26.2356003,15.5412054 C26.2356003,20.5780554 22.1524443,24.6610224 17.1155943,24.6610224 C12.0789333,24.6610224 7.9955883,20.5780554 7.9955883,15.5412054 L7.9955883,12.8090214" id="Stroke-1"></path>
                            <path d="M5.3631018,13.2036345 L5.3631018,11.8294155 C5.3631018,5.3482275 10.6171128,0.0944055 17.0981118,0.0944055 C23.5792998,0.0944055 28.8331218,5.3482275 28.8331218,11.8294155 L28.8331218,13.2036345" id="Stroke-3"></path>
                            <path d="M6.5917908,17.7774723 L7.8703758,17.7774723 L7.8703758,12.8090403 L6.5917908,12.8090403 C5.2198398,12.8090403 4.1075748,13.9213053 4.1075748,15.2932563 C4.1075748,16.6652073 5.2198398,17.7774723 6.5917908,17.7774723 Z" id="Stroke-5"></path>
                            <path d="M27.5139396,17.7774723 L26.2355436,17.7774723 L26.2355436,12.8090403 L27.5139396,12.8090403 C28.8858906,12.8090403 29.9981556,13.9213053 29.9981556,15.2932563 C29.9981556,16.6652073 28.8858906,17.7774723 27.5139396,17.7774723 Z" id="Stroke-7"></path>
                            <path d="M7.8710562,12.8069046 C8.6151492,13.0972086 9.4246362,13.2563466 10.2711672,13.2563466 C13.9203792,13.2563466 16.8786072,10.2981186 16.8786072,6.6489066" id="Stroke-9"></path>
                            <path d="M17.0980929,6.6490011 C17.0980929,10.2982131 20.0563209,13.2564411 23.7055329,13.2564411 C24.6682989,13.2564411 25.5828699,13.0506201 26.4076659,12.6803691" id="Stroke-11"></path>
                            <path d="M12.7760031,23.716665 L12.7760031,26.8191 C12.7760031,27.906417 11.8945071,28.787913 10.8071901,28.787913 L10.6854741,28.787913 C4.8363021,28.787913 0.0944811,33.529545 0.0944811,39.378906 L0.0944811,45.89487 C0.0944811,46.982187 0.9757881,47.863683 2.0631051,47.863683 L32.1330051,47.863683 C33.2203221,47.863683 34.1018181,46.982187 34.1018181,45.89487 L34.1018181,39.378906 C34.1018181,33.529545 29.3599971,28.787913 23.5108251,28.787913 L23.4240741,28.787913 C22.3367571,28.787913 21.4552611,27.906417 21.4552611,26.8191 L21.4552611,23.716665" id="Stroke-13"></path>
                            <polyline id="Stroke-15" points="12.7760031 26.8191189 20.7512361 34.7945409 26.1770481 29.3687289"></polyline>
                            <polyline id="Stroke-17" points="21.3969168 26.7580152 13.4214948 34.7334372 7.9956828 29.3074362"></polyline>
                        </g>
                    </g>
                    <g id="编组-11备份-4" transform="translate(252.000000, 0.900000)" stroke="#FFFFFF" stroke-width="0.567">
                        <g id="编组">
                            <path d="M26.2356003,12.8090214 L26.2356003,15.5412054 C26.2356003,20.5780554 22.1524443,24.6610224 17.1155943,24.6610224 C12.0789333,24.6610224 7.9955883,20.5780554 7.9955883,15.5412054 L7.9955883,12.8090214" id="Stroke-1"></path>
                            <path d="M5.3631018,13.2036345 L5.3631018,11.8294155 C5.3631018,5.3482275 10.6171128,0.0944055 17.0981118,0.0944055 C23.5792998,0.0944055 28.8331218,5.3482275 28.8331218,11.8294155 L28.8331218,13.2036345" id="Stroke-3"></path>
                            <path d="M6.5917908,17.7774723 L7.8703758,17.7774723 L7.8703758,12.8090403 L6.5917908,12.8090403 C5.2198398,12.8090403 4.1075748,13.9213053 4.1075748,15.2932563 C4.1075748,16.6652073 5.2198398,17.7774723 6.5917908,17.7774723 Z" id="Stroke-5"></path>
                            <path d="M27.5139396,17.7774723 L26.2355436,17.7774723 L26.2355436,12.8090403 L27.5139396,12.8090403 C28.8858906,12.8090403 29.9981556,13.9213053 29.9981556,15.2932563 C29.9981556,16.6652073 28.8858906,17.7774723 27.5139396,17.7774723 Z" id="Stroke-7"></path>
                            <path d="M7.8710562,12.8069046 C8.6151492,13.0972086 9.4246362,13.2563466 10.2711672,13.2563466 C13.9203792,13.2563466 16.8786072,10.2981186 16.8786072,6.6489066" id="Stroke-9"></path>
                            <path d="M17.0980929,6.6490011 C17.0980929,10.2982131 20.0563209,13.2564411 23.7055329,13.2564411 C24.6682989,13.2564411 25.5828699,13.0506201 26.4076659,12.6803691" id="Stroke-11"></path>
                            <path d="M12.7760031,23.716665 L12.7760031,26.8191 C12.7760031,27.906417 11.8945071,28.787913 10.8071901,28.787913 L10.6854741,28.787913 C4.8363021,28.787913 0.0944811,33.529545 0.0944811,39.378906 L0.0944811,45.89487 C0.0944811,46.982187 0.9757881,47.863683 2.0631051,47.863683 L32.1330051,47.863683 C33.2203221,47.863683 34.1018181,46.982187 34.1018181,45.89487 L34.1018181,39.378906 C34.1018181,33.529545 29.3599971,28.787913 23.5108251,28.787913 L23.4240741,28.787913 C22.3367571,28.787913 21.4552611,27.906417 21.4552611,26.8191 L21.4552611,23.716665" id="Stroke-13"></path>
                            <polyline id="Stroke-15" points="12.7760031 26.8191189 20.7512361 34.7945409 26.1770481 29.3687289"></polyline>
                            <polyline id="Stroke-17" points="21.3969168 26.7580152 13.4214948 34.7334372 7.9956828 29.3074362"></polyline>
                        </g>
                    </g>
                    <g id="编组-11备份-3" transform="translate(104.400000, 0.000000)" stroke="#FFFFFF" stroke-width="0.567">
                        <g id="编组">
                            <path d="M26.2356003,12.8090214 L26.2356003,15.5412054 C26.2356003,20.5780554 22.1524443,24.6610224 17.1155943,24.6610224 C12.0789333,24.6610224 7.9955883,20.5780554 7.9955883,15.5412054 L7.9955883,12.8090214" id="Stroke-1"></path>
                            <path d="M5.3631018,13.2036345 L5.3631018,11.8294155 C5.3631018,5.3482275 10.6171128,0.0944055 17.0981118,0.0944055 C23.5792998,0.0944055 28.8331218,5.3482275 28.8331218,11.8294155 L28.8331218,13.2036345" id="Stroke-3"></path>
                            <path d="M6.5917908,17.7774723 L7.8703758,17.7774723 L7.8703758,12.8090403 L6.5917908,12.8090403 C5.2198398,12.8090403 4.1075748,13.9213053 4.1075748,15.2932563 C4.1075748,16.6652073 5.2198398,17.7774723 6.5917908,17.7774723 Z" id="Stroke-5"></path>
                            <path d="M27.5139396,17.7774723 L26.2355436,17.7774723 L26.2355436,12.8090403 L27.5139396,12.8090403 C28.8858906,12.8090403 29.9981556,13.9213053 29.9981556,15.2932563 C29.9981556,16.6652073 28.8858906,17.7774723 27.5139396,17.7774723 Z" id="Stroke-7"></path>
                            <path d="M7.8710562,12.8069046 C8.6151492,13.0972086 9.4246362,13.2563466 10.2711672,13.2563466 C13.9203792,13.2563466 16.8786072,10.2981186 16.8786072,6.6489066" id="Stroke-9"></path>
                            <path d="M17.0980929,6.6490011 C17.0980929,10.2982131 20.0563209,13.2564411 23.7055329,13.2564411 C24.6682989,13.2564411 25.5828699,13.0506201 26.4076659,12.6803691" id="Stroke-11"></path>
                            <path d="M12.7760031,23.716665 L12.7760031,26.8191 C12.7760031,27.906417 11.8945071,28.787913 10.8071901,28.787913 L10.6854741,28.787913 C4.8363021,28.787913 0.0944811,33.529545 0.0944811,39.378906 L0.0944811,45.89487 C0.0944811,46.982187 0.9757881,47.863683 2.0631051,47.863683 L32.1330051,47.863683 C33.2203221,47.863683 34.1018181,46.982187 34.1018181,45.89487 L34.1018181,39.378906 C34.1018181,33.529545 29.3599971,28.787913 23.5108251,28.787913 L23.4240741,28.787913 C22.3367571,28.787913 21.4552611,27.906417 21.4552611,26.8191 L21.4552611,23.716665" id="Stroke-13"></path>
                            <polyline id="Stroke-15" points="12.7760031 26.8191189 20.7512361 34.7945409 26.1770481 29.3687289"></polyline>
                            <polyline id="Stroke-17" points="21.3969168 26.7580152 13.4214948 34.7334372 7.9956828 29.3074362"></polyline>
                        </g>
                    </g>
                    <g id="编组-11备份-5" transform="translate(304.200000, 0.900000)" stroke="#FFFFFF" stroke-width="0.567">
                        <g id="编组">
                            <path d="M26.2356003,12.8090214 L26.2356003,15.5412054 C26.2356003,20.5780554 22.1524443,24.6610224 17.1155943,24.6610224 C12.0789333,24.6610224 7.9955883,20.5780554 7.9955883,15.5412054 L7.9955883,12.8090214" id="Stroke-1"></path>
                            <path d="M5.3631018,13.2036345 L5.3631018,11.8294155 C5.3631018,5.3482275 10.6171128,0.0944055 17.0981118,0.0944055 C23.5792998,0.0944055 28.8331218,5.3482275 28.8331218,11.8294155 L28.8331218,13.2036345" id="Stroke-3"></path>
                            <path d="M6.5917908,17.7774723 L7.8703758,17.7774723 L7.8703758,12.8090403 L6.5917908,12.8090403 C5.2198398,12.8090403 4.1075748,13.9213053 4.1075748,15.2932563 C4.1075748,16.6652073 5.2198398,17.7774723 6.5917908,17.7774723 Z" id="Stroke-5"></path>
                            <path d="M27.5139396,17.7774723 L26.2355436,17.7774723 L26.2355436,12.8090403 L27.5139396,12.8090403 C28.8858906,12.8090403 29.9981556,13.9213053 29.9981556,15.2932563 C29.9981556,16.6652073 28.8858906,17.7774723 27.5139396,17.7774723 Z" id="Stroke-7"></path>
                            <path d="M7.8710562,12.8069046 C8.6151492,13.0972086 9.4246362,13.2563466 10.2711672,13.2563466 C13.9203792,13.2563466 16.8786072,10.2981186 16.8786072,6.6489066" id="Stroke-9"></path>
                            <path d="M17.0980929,6.6490011 C17.0980929,10.2982131 20.0563209,13.2564411 23.7055329,13.2564411 C24.6682989,13.2564411 25.5828699,13.0506201 26.4076659,12.6803691" id="Stroke-11"></path>
                            <path d="M12.7760031,23.716665 L12.7760031,26.8191 C12.7760031,27.906417 11.8945071,28.787913 10.8071901,28.787913 L10.6854741,28.787913 C4.8363021,28.787913 0.0944811,33.529545 0.0944811,39.378906 L0.0944811,45.89487 C0.0944811,46.982187 0.9757881,47.863683 2.0631051,47.863683 L32.1330051,47.863683 C33.2203221,47.863683 34.1018181,46.982187 34.1018181,45.89487 L34.1018181,39.378906 C34.1018181,33.529545 29.3599971,28.787913 23.5108251,28.787913 L23.4240741,28.787913 C22.3367571,28.787913 21.4552611,27.906417 21.4552611,26.8191 L21.4552611,23.716665" id="Stroke-13"></path>
                            <polyline id="Stroke-15" points="12.7760031 26.8191189 20.7512361 34.7945409 26.1770481 29.3687289"></polyline>
                            <polyline id="Stroke-17" points="21.3969168 26.7580152 13.4214948 34.7334372 7.9956828 29.3074362"></polyline>
                        </g>
                    </g>
                    <g id="编组-11备份-2" transform="translate(199.800000, 0.900000)" stroke="#3EBAB9" stroke-width="0.567">
                        <g id="编组">
                            <path d="M26.2356003,12.8090214 L26.2356003,15.5412054 C26.2356003,20.5780554 22.1524443,24.6610224 17.1155943,24.6610224 C12.0789333,24.6610224 7.9955883,20.5780554 7.9955883,15.5412054 L7.9955883,12.8090214" id="Stroke-1"></path>
                            <path d="M5.3631018,13.2036345 L5.3631018,11.8294155 C5.3631018,5.3482275 10.6171128,0.0944055 17.0981118,0.0944055 C23.5792998,0.0944055 28.8331218,5.3482275 28.8331218,11.8294155 L28.8331218,13.2036345" id="Stroke-3"></path>
                            <path d="M6.5917908,17.7774723 L7.8703758,17.7774723 L7.8703758,12.8090403 L6.5917908,12.8090403 C5.2198398,12.8090403 4.1075748,13.9213053 4.1075748,15.2932563 C4.1075748,16.6652073 5.2198398,17.7774723 6.5917908,17.7774723 Z" id="Stroke-5"></path>
                            <path d="M27.5139396,17.7774723 L26.2355436,17.7774723 L26.2355436,12.8090403 L27.5139396,12.8090403 C28.8858906,12.8090403 29.9981556,13.9213053 29.9981556,15.2932563 C29.9981556,16.6652073 28.8858906,17.7774723 27.5139396,17.7774723 Z" id="Stroke-7"></path>
                            <path d="M7.8710562,12.8069046 C8.6151492,13.0972086 9.4246362,13.2563466 10.2711672,13.2563466 C13.9203792,13.2563466 16.8786072,10.2981186 16.8786072,6.6489066" id="Stroke-9"></path>
                            <path d="M17.0980929,6.6490011 C17.0980929,10.2982131 20.0563209,13.2564411 23.7055329,13.2564411 C24.6682989,13.2564411 25.5828699,13.0506201 26.4076659,12.6803691" id="Stroke-11"></path>
                            <path d="M12.7760031,23.716665 L12.7760031,26.8191 C12.7760031,27.906417 11.8945071,28.787913 10.8071901,28.787913 L10.6854741,28.787913 C4.8363021,28.787913 0.0944811,33.529545 0.0944811,39.378906 L0.0944811,45.89487 C0.0944811,46.982187 0.9757881,47.863683 2.0631051,47.863683 L32.1330051,47.863683 C33.2203221,47.863683 34.1018181,46.982187 34.1018181,45.89487 L34.1018181,39.378906 C34.1018181,33.529545 29.3599971,28.787913 23.5108251,28.787913 L23.4240741,28.787913 C22.3367571,28.787913 21.4552611,27.906417 21.4552611,26.8191 L21.4552611,23.716665" id="Stroke-13"></path>
                            <polyline id="Stroke-15" points="12.7760031 26.8191189 20.7512361 34.7945409 26.1770481 29.3687289"></polyline>
                            <polyline id="Stroke-17" points="21.3969168 26.7580152 13.4214948 34.7334372 7.9956828 29.3074362"></polyline>
                        </g>
                    </g>
                    <path id="直线" d="M46.0388889,26 L53.0388889,29.25 L46.0388889,32.5 L46.038,29.5 L33.5,29.5 L33.5,29 L46.038,29 L46.0388889,26 Z" fill="#FFFFFF" fill-rule="nonzero"></path>
                    <path id="直线备份-4" d="M244.938889,26 L251.938889,29.25 L244.938889,32.5 L244.938,29.5 L232.4,29.5 L232.4,29 L244.938,29 L244.938889,26 Z" fill="#FFFFFF" fill-rule="nonzero"></path>
                    <path id="直线备份" d="M98.2388889,26 L105.238889,29.25 L98.2388889,32.5 L98.238,29.5 L85.7,29.5 L85.7,29 L98.238,29 L98.2388889,26 Z" fill="#FFFFFF" fill-rule="nonzero"></path>
                    <path id="直线备份-5" d="M297.138889,26 L304.138889,29.25 L297.138889,32.5 L297.138,29.5 L284.6,29.5 L284.6,29 L297.138,29 L297.138889,26 Z" fill="#FFFFFF" fill-rule="nonzero"></path>
                    <path id="直线备份-2" d="M150.438889,26 L157.438889,29.25 L150.438889,32.5 L150.438,29.5 L137.9,29.5 L137.9,29 L150.438,29 L150.438889,26 Z" fill="#FFFFFF" fill-rule="nonzero"></path>
                    <path id="直线备份-6" d="M349.338889,26 L356.338889,29.25 L349.338889,32.5 L349.338,29.5 L336.8,29.5 L336.8,29 L349.338,29 L349.338889,26 Z" fill="#FFFFFF" fill-rule="nonzero"></path>
                    <path id="直线备份-3" d="M193.638889,26 L200.638889,29.25 L193.638889,32.5 L193.638,29.5 L181.1,29.5 L181.1,29 L193.638,29 L193.638889,26 Z" fill="#FFFFFF" fill-rule="nonzero"></path>
                    <circle id="椭圆形" fill="#FFFFFF" cx="165.6" cy="28.8" r="1"></circle>
                    <circle id="椭圆形备份" fill="#FFFFFF" cx="170.1" cy="28.8" r="1"></circle>
                    <circle id="椭圆形备份-2" fill="#FFFFFF" cx="174.6" cy="28.8" r="1"></circle>
                </g>
                <g id="对勾-(1)" transform="translate(425.000000, 46.000000)" fill="#68EF69" fill-rule="nonzero">
                    <path d="M4,0 C1.79086672,0 0,1.7908576 0,4 C0,6.2091424 1.7908576,8 4,8 C6.2091424,8 8,6.2091424 8,4 C8,1.7908576 6.2091424,0 4,0 Z M3.67007246,6.01015113 C3.60445808,6.07413841 3.51868771,6.10599493 3.43292647,6.10599493 C3.34694586,6.10599493 3.26118462,6.07413841 3.19580791,6.01015113 L1.2242594,4.08618172 C1.09330486,3.95824373 1.09330486,3.75111692 1.2242594,3.62317894 C1.35524135,3.49524095 1.56753285,3.49524095 1.6985148,3.62317894 L3.43291733,5.31566066 L6.81458087,2.01625734 C6.94556283,1.88831935 7.15785433,1.88831935 7.28883628,2.01625734 C7.41982737,2.14395767 7.41982737,2.35108448 7.28883628,2.47902246 L3.67007246,6.01015113 Z" id="形状"></path>
                </g>
                <text id="Contributing-to-the" font-family="PingFangSC-Regular, PingFang SC" font-size="12" font-weight="normal" fill="#9A9A9A">
                    <tspan x="5" y="93">Contributing to the crypto infrastructure by running a part of the computation</tspan>
                </text>
                <rect id="矩形" stroke-opacity="0.248017851" stroke="#979797" x="0.5" y="0.5" width="444" height="115"></rect>
            </g>
        </g>
    </g>
</svg>