<?xml version="1.0" encoding="UTF-8"?>
<svg width="121px" height="46px" viewBox="0 0 121 46" version="1.1" xmlns="http://www.w3.org/2000/svg" xmlns:xlink="http://www.w3.org/1999/xlink">
    <title>编组</title>
    <defs>
        <polygon id="path-1" points="0 0.6936 17.72272 0.6936 17.72272 29.5352 0 29.5352"></polygon>
        <polygon id="path-3" points="0.02232 0.48 14.55192 0.48 14.55192 4.10608 0.02232 4.10608"></polygon>
    </defs>
    <g id="页面-1" stroke="none" stroke-width="1" fill="none" fill-rule="evenodd">
        <g id="2.活动页鼠标悬停效果" transform="translate(-900.000000, -986.000000)">
            <g id="编组" transform="translate(900.000000, 986.000000)">
                <path d="M68.48792,13.3944 C67.62472,12.5048 66.51512,12.0592 65.15992,12.0592 L46.82312,12.0592 L46.82312,17.9736 L64.11672,17.9736 L64.11672,21.4256 L51.44712,21.4256 C50.03832,21.4256 48.91592,21.8776 48.07832,22.7808 C47.24072,23.684 46.82312,24.7872 46.82312,26.0888 L46.82312,30.792 C46.82312,32.1208 47.26232,33.2304 48.13832,34.12 C49.01512,35.0112 50.11832,35.4552 51.44712,35.4552 L61.80952,35.4552 L61.80952,29.9664 L52.62152,29.9664 L52.62152,26.6112 L64.11672,26.6112 L64.11672,35.4552 L69.78392,35.4552 L69.78392,16.7224 C69.78392,15.3944 69.35112,14.2848 68.48792,13.3944" id="Fill-1" fill="#FFFFFF"></path>
                <path d="M118.73872,13.3944 C117.87472,12.5048 116.76512,12.0592 115.41072,12.0592 L97.07392,12.0592 L97.07392,17.9736 L114.36672,17.9736 L114.36672,21.4256 L101.69712,21.4256 C100.28912,21.4256 99.16592,21.8776 98.32912,22.7808 C97.49152,23.684 97.07392,24.7872 97.07392,26.0888 L97.07392,30.792 C97.07392,32.1208 97.51232,33.2304 98.38912,34.12 C99.26512,35.0112 100.36832,35.4552 101.69712,35.4552 L112.05952,35.4552 L112.05952,29.9664 L102.87152,29.9664 L102.87152,26.6112 L114.36672,26.6112 L114.36672,35.4552 L120.03392,35.4552 L120.03392,16.7224 C120.03392,15.3944 119.60192,14.2848 118.73872,13.3944" id="Fill-3" fill="#FFFFFF"></path>
                <g transform="translate(0.000000, 5.920320)">
                    <mask id="mask-2" fill="white">
                        <use xlink:href="#path-1"></use>
                    </mask>
                    <g id="Clip-6"></g>
                    <polygon id="Fill-5" fill="#FFFFFF" mask="url(#mask-2)" points="14.43632 0.6936 17.72272 6.8008 6.19392 29.5352 -0.00048 29.5352"></polygon>
                </g>
                <path d="M19.03872,15.16936 L11.03872,31.11736 L15.13152,31.11736 C16.39232,31.11736 17.54672,30.40216 18.11632,29.26696 L18.75552,27.99256 L22.77232,35.45496 L29.95952,35.45496 L19.03872,15.16936 Z" id="Fill-7" fill="#FFFFFF"></path>
                <path d="M35.63712,30.10768 L35.63712,11.12448 L33.20992,6.61408 L29.95952,6.61408 L29.95952,30.10768 L29.95952,31.59008 C29.95952,33.72448 31.59072,35.45568 33.60352,35.45568 L33.79312,35.45568 L35.63712,35.45568 L44.48992,35.45568 L44.48992,30.10768 L35.63712,30.10768 Z" id="Fill-9" fill="#FFFFFF"></path>
                <g transform="translate(7.200000, 0.320320)">
                    <mask id="mask-4" fill="white">
                        <use xlink:href="#path-3"></use>
                    </mask>
                    <g id="Clip-12"></g>
                    <path d="M0.02232,4.10608 L0.02232,2.63808 C0.02232,1.44608 0.98872,0.47968 2.17992,0.47968 L12.39432,0.47968 C13.58552,0.47968 14.55192,1.44608 14.55192,2.63808 L14.55192,4.10608 L0.02232,4.10608 Z" id="Fill-11" fill="#F9BE00" mask="url(#mask-4)"></path>
                </g>
                <path d="M82.89888,21.96784 L77.15008,11.28544 L71.25568,11.28544 L81.32368,31.01024 L83.16528,26.25744 C83.70768,24.85824 83.61008,23.28784 82.89888,21.96784" id="Fill-13" fill="#F9BE00"></path>
                <polygon id="Fill-15" fill="#FFFFFF" points="89.84576 11.28576 76.97696 45.12016 82.71456 45.12016 95.77456 11.28576"></polygon>
            </g>
        </g>
    </g>
</svg>