<?xml version="1.0" encoding="UTF-8"?>
<svg width="172px" height="158px" viewBox="0 0 172 158" version="1.1" xmlns="http://www.w3.org/2000/svg" xmlns:xlink="http://www.w3.org/1999/xlink">
    <title>编组</title>
    <g id="Page-1" stroke="none" stroke-width="1" fill="none" fill-rule="evenodd">
        <g id="LatticeX-竖-黑底备份" transform="translate(-94.000000, -70.000000)" fill="#FFFFFF">
            <g id="编组" transform="translate(94.009479, 70.000000)">
                <g transform="translate(0.990521, 0.000000)">
                    <polygon id="Fill-13" points="63.823198 0.165735931 47.727097 9.46833333 63.823198 18.7692424"></polygon>
                    <polygon id="Fill-14" points="36.8859293 21.4509567 20.7898283 30.7518658 36.8859293 40.0544632"></polygon>
                    <polygon id="Fill-15" points="42.547904 55.525645 26.451803 64.8265541 42.547904 74.1291515"></polygon>
                    <polygon id="Fill-16" points="76.2802172 49.6758139 60.1841162 58.9784113 76.2802172 68.2793203"></polygon>
                    <polygon id="Fill-17" points="84.5796111 83.4552165 68.4835101 92.7578139 84.5796111 102.058723"></polygon>
                    <polygon id="Fill-18" points="100.952359 12.2494892 84.8562576 21.5520866 100.952359 30.8529957"></polygon>
                    <polygon id="Fill-19" points="107.116683 38.7281255 91.0205818 48.0290346 107.116683 57.3299437"></polygon>
                    <polygon id="Fill-20" points="113.931801 70.1153593 97.8357 79.4162684 113.931801 88.7188658"></polygon>
                    <polygon id="Fill-21" points="131.436269 60.0035541 115.340168 69.3061515 131.436269 78.6070606"></polygon>
                    <polygon id="Fill-22" points="148.898059 49.9066061 132.801958 59.2075152 148.898059 68.5101126"></polygon>
                    <polygon id="Fill-23" points="131.418219 39.8098268 115.322118 49.1124242 131.418219 58.4133333"></polygon>
                    <polygon id="Fill-24" points="151.812124 78.1182944 135.716023 87.4192035 151.812124 96.7218009"></polygon>
                    <polygon id="Fill-25" points="134.363661 88.2267229 118.269246 97.527632 134.363661 106.828541"></polygon>
                    <polygon id="Fill-26" points="108.289563 98.2839957 92.1934616 107.584905 108.289563 116.887502"></polygon>
                    <polygon id="Fill-27" points="169.291964 68.0115541 153.195863 77.3141515 169.291964 86.6150606"></polygon>
                    <polygon id="Fill-28" points="55.234 94.5084242 39.137899 103.809333 55.234 113.110242"></polygon>
                    <polygon id="Fill-29" points="90.7867818 108.400697 74.6906808 117.703294 90.7867818 127.004203"></polygon>
                    <polygon id="Fill-30" points="73.3644646 118.495957 57.2683636 127.796866 73.3644646 137.099463"></polygon>
                    <polygon id="Fill-31" points="90.7999394 128.61097 74.7038384 137.911879 90.7999394 147.212788"></polygon>
                    <polygon id="Fill-32" points="108.268139 118.509126 92.1720384 127.810035 108.268139 137.110944"></polygon>
                    <polygon id="Fill-33" points="134.3586 128.61097 118.262499 137.911879 134.3586 147.212788"></polygon>
                    <polygon id="Fill-34" points="134.335659 108.400697 118.239558 117.703294 134.335659 127.004203"></polygon>
                    <polygon id="Fill-35" points="151.823764 98.3302554 135.727663 107.632853 151.823764 116.933762"></polygon>
                    <polygon id="Fill-36" points="169.336497 88.2267229 153.240396 97.527632 169.336497 106.828541"></polygon>
                    <polygon id="Fill-37" points="169.316761 108.435307 153.22066 117.736216 169.316761 127.037126"></polygon>
                    <polygon id="Fill-38" points="151.841813 118.523983 135.745712 127.824892 151.841813 137.127489"></polygon>
                    <polygon id="Fill-39" points="108.288044 138.712814 92.1919434 148.013723 108.288044 157.31632"></polygon>
                    <polygon id="Fill-40" points="0.0467414141 31.5561775 16.1428424 40.8570866 0.0467414141 50.1579957"></polygon>
                    <polygon id="Fill-41" points="51.5093939 31.5561775 67.6054949 40.8570866 51.5093939 50.1579957"></polygon>
                    <polygon id="Fill-42" points="28.9212101 80.6227359 45.0173111 89.9253333 28.9212101 99.2262424"></polygon>
                    <polygon id="Fill-43" points="61.8743586 97.3591385 77.9704596 106.660048 61.8743586 115.960957"></polygon>
                    <polygon id="Fill-44" points="36.377001 111.163957 52.473102 120.464866 36.377001 129.765775"></polygon>
                    <polygon id="Fill-45" points="74.2870131 118.528879 90.3831141 127.831476 74.2870131 137.132385"></polygon>
                    <polygon id="Fill-46" points="91.7305848 108.400697 107.826686 117.703294 91.7305848 127.004203"></polygon>
                    <polygon id="Fill-47" points="91.7290667 88.1921126 107.825168 97.49471 91.7290667 106.795619"></polygon>
                    <polygon id="Fill-48" points="91.4488778 57.4710866 107.544979 66.7719957 91.4488778 76.0729048"></polygon>
                    <polygon id="Fill-49" points="68.0106808 73.3716061 84.1067818 82.6725152 68.0106808 91.9751126"></polygon>
                    <polygon id="Fill-50" points="84.4213828 22.3842554 100.517484 31.6851645 84.4213828 40.9877619"></polygon>
                    <polygon id="Fill-51" points="114.86076 70.1070866 130.956861 79.4079957 114.86076 88.7089048"></polygon>
                    <polygon id="Fill-52" points="114.925029 49.9066061 131.02113 59.2075152 114.925029 68.5101126"></polygon>
                    <polygon id="Fill-53" points="111.221846 22.2885281 127.317947 31.5894372 111.221846 40.8920346"></polygon>
                    <polygon id="Fill-54" points="132.339081 39.7949697 148.435182 49.0975671 132.339081 58.3984762"></polygon>
                    <polygon id="Fill-55" points="132.362022 60.0217879 148.458123 69.3243853 132.362022 78.6252944"></polygon>
                    <polygon id="Fill-56" points="149.812341 49.911671 165.908442 59.2125801 149.812341 68.5134892"></polygon>
                    <polygon id="Fill-57" points="152.754409 78.11171 168.85051 87.412619 152.754409 96.7135281"></polygon>
                    <polygon id="Fill-58" points="135.246568 88.2267229 151.342669 97.527632 135.246568 106.828541"></polygon>
                    <polygon id="Fill-59" points="117.776681 98.3302554 133.872782 107.632853 117.776681 116.933762"></polygon>
                    <polygon id="Fill-60" points="135.29768 108.435307 151.393781 117.736216 135.29768 127.037126"></polygon>
                    <polygon id="Fill-61" points="152.744457 98.3400476 168.840558 107.640957 152.744457 116.941866"></polygon>
                    <polygon id="Fill-62" points="152.762675 118.532255 168.858776 127.833165 152.762675 137.134074"></polygon>
                    <polygon id="Fill-63" points="135.271365 128.637476 151.367466 137.938385 135.271365 147.239294"></polygon>
                    <polygon id="Fill-64" points="117.789838 138.714502 133.885939 148.015411 117.789838 157.318009"></polygon>
                    <polygon id="Fill-65" points="91.7305848 128.619242 107.826686 137.92184 91.7305848 147.222749"></polygon>
                    <polygon id="Fill-66" points="117.776681 118.509126 133.872782 127.810035 117.776681 137.110944"></polygon>
                </g>
            </g>
        </g>
    </g>
</svg>